{"accessors" : [{"bufferView" : 0, "byteOffset" : 0, "componentType" : 5123, "count" : 4908, "type" : "SCALAR", "max" : [4907], "min" : [0]}, {"bufferView" : 1, "byteOffset" : 0, "componentType" : 5126, "count" : 4908, "type" : "VEC3", "max" : [8.58608341217041, 22.889266967773438, 6.77498722076416], "min" : [-8.63906192779541, 0.8752927780151367, -6.212160110473633], "name" : "POSITION"}, {"bufferView" : 1, "byteOffset" : 12, "componentType" : 5126, "count" : 4908, "type" : "VEC3", "max" : [1.0000044107437134, 1.0000044107437134, 1.0000044107437134], "min" : [-1.0000044107437134, -1.0000044107437134, -1.0000044107437134], "name" : "NORMAL"}, {"bufferView" : 1, "byteOffset" : 24, "componentType" : 5126, "count" : 4908, "type" : "VEC2", "max" : [1, -0], "min" : [0, -1], "name" : "TEXCOORD_0"}, {"bufferView" : 0, "byteOffset" : 9816, "componentType" : 5123, "count" : 276, "type" : "SCALAR", "max" : [275], "min" : [0]}, {"bufferView" : 2, "byteOffset" : 0, "componentType" : 5126, "count" : 276, "type" : "VEC3", "max" : [3.2190816402435303, 13.606518745422363, 3.970255136489868], "min" : [-3.2190816402435303, 10.634173393249512, 2.4619054794311523], "name" : "POSITION"}, {"bufferView" : 2, "byteOffset" : 12, "componentType" : 5126, "count" : 276, "type" : "VEC3", "max" : [0.8830476999282837, 0.9756565690040588, 0.9715964198112488], "min" : [-0.8830476999282837, -0.9756565690040588, -0.9716891646385193], "name" : "NORMAL"}, {"bufferView" : 2, "byteOffset" : 24, "componentType" : 5126, "count" : 276, "type" : "VEC2", "max" : [0.875, 1.1175870895385742E-08], "min" : [0.125, -1], "name" : "TEXCOORD_0"}, {"bufferView" : 0, "byteOffset" : 10368, "componentType" : 5123, "count" : 33048, "type" : "SCALAR", "max" : [33047], "min" : [0]}, {"bufferView" : 3, "byteOffset" : 0, "componentType" : 5126, "count" : 33048, "type" : "VEC3", "max" : [8.807416915893555, 25.719118118286133, 7.998175621032715], "min" : [-8.88932991027832, 1.1935166120529175, -7.7140350341796875], "name" : "POSITION"}, {"bufferView" : 3, "byteOffset" : 12, "componentType" : 5126, "count" : 33048, "type" : "VEC3", "max" : [0.9999402761459351, 1.0000044107437134, 0.9999923706054688], "min" : [-0.9998255372047424, -1.0000044107437134, -0.9999885559082031], "name" : "NORMAL"}, {"bufferView" : 3, "byteOffset" : 24, "componentType" : 5126, "count" : 33048, "type" : "VEC2", "max" : [0.8750000596046448, -0], "min" : [0.057215869426727295, -1], "name" : "TEXCOORD_0"}, {"bufferView" : 0, "byteOffset" : 76464, "componentType" : 5123, "count" : 1824, "type" : "SCALAR", "max" : [1823], "min" : [0]}, {"bufferView" : 4, "byteOffset" : 0, "componentType" : 5126, "count" : 1824, "type" : "VEC3", "max" : [6.799962520599365, 14.416051864624023, 4.048764228820801], "min" : [-6.799962520599365, 6.037423133850098, -4.343836307525635], "name" : "POSITION"}, {"bufferView" : 4, "byteOffset" : 12, "componentType" : 5126, "count" : 1824, "type" : "VEC3", "max" : [0.999834418296814, 1.0000044107437134, 0.9966712594032288], "min" : [-0.999834418296814, -1.0000044107437134, -0.9996264576911926], "name" : "NORMAL"}, {"bufferView" : 4, "byteOffset" : 24, "componentType" : 5126, "count" : 1824, "type" : "VEC2", "max" : [0.875, -0], "min" : [0.125, -1], "name" : "TEXCOORD_0"}, {"bufferView" : 0, "byteOffset" : 80112, "componentType" : 5123, "count" : 36, "type" : "SCALAR", "max" : [35], "min" : [0]}, {"bufferView" : 5, "byteOffset" : 0, "componentType" : 5126, "count" : 36, "type" : "VEC3", "max" : [0.9406405091285706, 10.570595741271973, 4.22977352142334], "min" : [-0.9406405091285706, 7.964205741882324, 3.952378273010254], "name" : "POSITION"}, {"bufferView" : 5, "byteOffset" : 12, "componentType" : 5126, "count" : 36, "type" : "VEC3", "max" : [1.0000044107437134, 0.9982212781906128, 0.998221218585968], "min" : [-1.0000044107437134, -0.9982212781906128, -0.998221218585968], "name" : "NORMAL"}, {"bufferView" : 5, "byteOffset" : 24, "componentType" : 5126, "count" : 36, "type" : "VEC2", "max" : [0.875, -0], "min" : [0.125, -1], "name" : "TEXCOORD_0"}, {"bufferView" : 0, "byteOffset" : 80184, "componentType" : 5123, "count" : 372, "type" : "SCALAR", "max" : [371], "min" : [0]}, {"bufferView" : 6, "byteOffset" : 0, "componentType" : 5126, "count" : 372, "type" : "VEC3", "max" : [6.038136005401611, 18.96820640563965, 6.630061149597168], "min" : [-6.038136005401611, 17.70669174194336, 5.8858489990234375], "name" : "POSITION"}, {"bufferView" : 6, "byteOffset" : 12, "componentType" : 5126, "count" : 372, "type" : "VEC3", "max" : [0.9381057620048523, 1.0000044107437134, 1.0000044107437134], "min" : [-0.9381054043769836, -1.0000044107437134, -1.0000044107437134], "name" : "NORMAL"}, {"bufferView" : 6, "byteOffset" : 24, "componentType" : 5126, "count" : 372, "type" : "VEC2", "max" : [0.875, -0], "min" : [0.125, -0.25], "name" : "TEXCOORD_0"}, {"bufferView" : 0, "byteOffset" : 80928, "componentType" : 5123, "count" : 792, "type" : "SCALAR", "max" : [791], "min" : [0]}, {"bufferView" : 7, "byteOffset" : 0, "componentType" : 5126, "count" : 792, "type" : "VEC3", "max" : [5.68314266204834, 18.77863121032715, 6.611920356750488], "min" : [-5.68314266204834, 15.329546928405762, 5.962089538574219], "name" : "POSITION"}, {"bufferView" : 7, "byteOffset" : 12, "componentType" : 5126, "count" : 792, "type" : "VEC3", "max" : [0.9990860819816589, 0.9996087551116943, 0.9994378685951233], "min" : [-0.9990861415863037, -0.9992800951004028, -0.999426007270813], "name" : "NORMAL"}, {"bufferView" : 7, "byteOffset" : 24, "componentType" : 5126, "count" : 792, "type" : "VEC2", "max" : [0.875, -0], "min" : [0.125, -0], "name" : "TEXCOORD_0"}, {"bufferView" : 0, "byteOffset" : 82512, "componentType" : 5123, "count" : 480, "type" : "SCALAR", "max" : [479], "min" : [0]}, {"bufferView" : 8, "byteOffset" : 0, "componentType" : 5126, "count" : 480, "type" : "VEC3", "max" : [3.575334310531616, 1.6584446430206299, 0.41151636838912964], "min" : [-3.575334310531616, 0.9223498106002808, -1.7859363555908203], "name" : "POSITION"}, {"bufferView" : 8, "byteOffset" : 12, "componentType" : 5126, "count" : 480, "type" : "VEC3", "max" : [0.9992051124572754, 1.0000005960464478, 0.9951530694961548], "min" : [-0.9992051124572754, -0.9999593496322632, -0.9997698068618774], "name" : "NORMAL"}, {"bufferView" : 8, "byteOffset" : 24, "componentType" : 5126, "count" : 480, "type" : "VEC2", "max" : [0.875, -7.450580596923828E-09], "min" : [0.125, -1], "name" : "TEXCOORD_0"}, {"bufferView" : 0, "byteOffset" : 83472, "componentType" : 5123, "count" : 36, "type" : "SCALAR", "max" : [35], "min" : [0]}, {"bufferView" : 9, "byteOffset" : 0, "componentType" : 5126, "count" : 36, "type" : "VEC3", "max" : [0.21094180643558502, 11.217669486999512, 4.181698799133301], "min" : [-0.21094180643558502, 10.206276893615723, 3.6281843185424805], "name" : "POSITION"}, {"bufferView" : 9, "byteOffset" : 12, "componentType" : 5126, "count" : 36, "type" : "VEC3", "max" : [1.0000044107437134, 0.9756562113761902, 0.975656270980835], "min" : [-1.0000044107437134, -0.9756562113761902, -0.975656270980835], "name" : "NORMAL"}, {"bufferView" : 9, "byteOffset" : 24, "componentType" : 5126, "count" : 36, "type" : "VEC2", "max" : [0.875, -0], "min" : [0.125, -1], "name" : "TEXCOORD_0"}, {"bufferView" : 0, "byteOffset" : 83544, "componentType" : 5123, "count" : 888, "type" : "SCALAR", "max" : [887], "min" : [0]}, {"bufferView" : 10, "byteOffset" : 0, "componentType" : 5126, "count" : 888, "type" : "VEC3", "max" : [4.5503339767456055, 2.147677421569824, 2.511716604232788], "min" : [-4.550334930419922, 0.24134108424186707, -2.2548961639404297], "name" : "POSITION"}, {"bufferView" : 10, "byteOffset" : 12, "componentType" : 5126, "count" : 888, "type" : "VEC3", "max" : [0.9794750809669495, 1.0000044107437134, 0.996155321598053], "min" : [-0.9794750809669495, -0.03683209791779518, -0.98069167137146], "name" : "NORMAL"}, {"bufferView" : 10, "byteOffset" : 24, "componentType" : 5126, "count" : 888, "type" : "VEC2", "max" : [1, -0], "min" : [0, -1], "name" : "TEXCOORD_0"}, {"bufferView" : 0, "byteOffset" : 85320, "componentType" : 5123, "count" : 768, "type" : "SCALAR", "max" : [767], "min" : [0]}, {"bufferView" : 11, "byteOffset" : 0, "componentType" : 5126, "count" : 768, "type" : "VEC3", "max" : [4.626810550689697, 1.1983764171600342, 2.6104791164398193], "min" : [-4.626810550689697, -0.11049462854862213, -2.329869270324707], "name" : "POSITION"}, {"bufferView" : 11, "byteOffset" : 12, "componentType" : 5126, "count" : 768, "type" : "VEC3", "max" : [0.989020586013794, 0.6059796810150146, 0.9964898824691772], "min" : [-0.9890204668045044, -0.9999389052391052, -0.99019855260849], "name" : "NORMAL"}, {"bufferView" : 11, "byteOffset" : 24, "componentType" : 5126, "count" : 768, "type" : "VEC2", "max" : [0.875, -0], "min" : [0.125, -1], "name" : "TEXCOORD_0"}, {"bufferView" : 0, "byteOffset" : 86856, "componentType" : 5123, "count" : 216, "type" : "SCALAR", "max" : [215], "min" : [0]}, {"bufferView" : 12, "byteOffset" : 0, "componentType" : 5126, "count" : 216, "type" : "VEC3", "max" : [3.8061747550964355, 2.415497303009033, 1.7125178575515747], "min" : [-3.8061749935150146, 1.2396551370620728, -0.32009533047676086], "name" : "POSITION"}, {"bufferView" : 12, "byteOffset" : 12, "componentType" : 5126, "count" : 216, "type" : "VEC3", "max" : [0.9131982326507568, 0.9956938028335571, 0.9451716542243958], "min" : [-0.9131978750228882, -0.5351371169090271, -0.9465596079826355], "name" : "NORMAL"}, {"bufferView" : 12, "byteOffset" : 24, "componentType" : 5126, "count" : 216, "type" : "VEC2", "max" : [1, -0], "min" : [-5.808486461639404, -1], "name" : "TEXCOORD_0"}], "asset" : {"generator" : "Aspose.3D 23.2", "version" : "2.0"}, "buffers" : [{"uri" : "data:application/octet-stream;base64,", "byteLength" : 1483948}], "bufferViews" : [{"buffer" : 0, "byteOffset" : 0, "byteLength" : 87288, "target" : 34963}, {"buffer" : 0, "byteOffset" : 87292, "byteLength" : 157056, "byteStride" : 32, "target" : 34962}, {"buffer" : 0, "byteOffset" : 244352, "byteLength" : 8832, "byteStride" : 32, "target" : 34962}, {"buffer" : 0, "byteOffset" : 253188, "byteLength" : 1057536, "byteStride" : 32, "target" : 34962}, {"buffer" : 0, "byteOffset" : 1310728, "byteLength" : 58368, "byteStride" : 32, "target" : 34962}, {"buffer" : 0, "byteOffset" : 1369100, "byteLength" : 1152, "byteStride" : 32, "target" : 34962}, {"buffer" : 0, "byteOffset" : 1370256, "byteLength" : 11904, "byteStride" : 32, "target" : 34962}, {"buffer" : 0, "byteOffset" : 1382164, "byteLength" : 25344, "byteStride" : 32, "target" : 34962}, {"buffer" : 0, "byteOffset" : 1407512, "byteLength" : 15360, "byteStride" : 32, "target" : 34962}, {"buffer" : 0, "byteOffset" : 1422876, "byteLength" : 1152, "byteStride" : 32, "target" : 34962}, {"buffer" : 0, "byteOffset" : 1424032, "byteLength" : 28416, "byteStride" : 32, "target" : 34962}, {"buffer" : 0, "byteOffset" : 1452452, "byteLength" : 24576, "byteStride" : 32, "target" : 34962}, {"buffer" : 0, "byteOffset" : 1477032, "byteLength" : 6912, "byteStride" : 32, "target" : 34962}], "materials" : [{"name" : "lambert3", "pbrMetallicRoughness" : {"baseColorFactor" : [0.44200000166893005, 0.2614620327949524, 0.18122000992298126, 1], "metallicFactor" : 0, "roughnessFactor" : 0}, "emissiveFactor" : [0, 0, 0], "alphaMode" : "OPAQUE", "doubleSided" : false}, {"name" : "lambert13", "pbrMetallicRoughness" : {"baseColorFactor" : [0.5, 0.08649998903274536, 0.08649998903274536, 1], "metallicFactor" : 0, "roughnessFactor" : 0}, "emissiveFactor" : [0, 0, 0], "alphaMode" : "OPAQUE", "doubleSided" : false}, {"name" : "lambert7", "pbrMetallicRoughness" : {"baseColorFactor" : [0.025345999747514725, 0.02972618117928505, 0.03799999877810478, 1], "metallicFactor" : 0, "roughnessFactor" : 0}, "emissiveFactor" : [0, 0, 0], "alphaMode" : "OPAQUE", "doubleSided" : false}, {"name" : "lambert8", "pbrMetallicRoughness" : {"baseColorFactor" : [0.15440000593662262, 0.18230000138282776, 0.29159998893737793, 1], "metallicFactor" : 0, "roughnessFactor" : 0}, "emissiveFactor" : [0, 0, 0], "alphaMode" : "OPAQUE", "doubleSided" : false}, {"name" : "lambert11", "pbrMetallicRoughness" : {"baseColorFactor" : [0.21279999613761902, 0.6290000081062317, 0.04019999876618385, 1], "metallicFactor" : 0, "roughnessFactor" : 0}, "emissiveFactor" : [0, 0, 0], "alphaMode" : "OPAQUE", "doubleSided" : false}, {"name" : "lambert10", "pbrMetallicRoughness" : {"baseColorFactor" : [0.21389098465442657, 0.22103041410446167, 0.24899999797344208, 1], "metallicFactor" : 0, "roughnessFactor" : 0}, "emissiveFactor" : [0, 0, 0], "alphaMode" : "OPAQUE", "doubleSided" : false}, {"name" : "lambert9", "pbrMetallicRoughness" : {"baseColorFactor" : [0.5, 0.5, 0.5, 0.1666666865348816], "metallicFactor" : 0, "roughnessFactor" : 0}, "emissiveFactor" : [0, 0, 0], "alphaMode" : "BLEND", "doubleSided" : false}, {"name" : "lambert2", "pbrMetallicRoughness" : {"baseColorFactor" : [0.39500001072883606, 0.39500001072883606, 0.39500001072883606, 1], "metallicFactor" : 0, "roughnessFactor" : 0}, "emissiveFactor" : [0, 0, 0], "alphaMode" : "OPAQUE", "doubleSided" : false}, {"name" : "lambert12", "pbrMetallicRoughness" : {"baseColorFactor" : [0.6585000157356262, 0.6947000026702881, 0.7839999794960022, 1], "metallicFactor" : 0, "roughnessFactor" : 0}, "emissiveFactor" : [0, 0, 0], "alphaMode" : "OPAQUE", "doubleSided" : false}, {"name" : "lambert4", "pbrMetallicRoughness" : {"baseColorFactor" : [0.04861399903893471, 0.10897770524024963, 0.22300000488758087, 1], "metallicFactor" : 0, "roughnessFactor" : 0}, "emissiveFactor" : [0, 0, 0], "alphaMode" : "OPAQUE", "doubleSided" : false}, {"name" : "lambert5", "pbrMetallicRoughness" : {"baseColorFactor" : [0.9047619104385376, 0.9047619104385376, 0.9047619104385376, 1], "metallicFactor" : 0, "roughnessFactor" : 0}, "emissiveFactor" : [0, 0, 0], "alphaMode" : "OPAQUE", "doubleSided" : false}, {"name" : "lambert6", "pbrMetallicRoughness" : {"baseColorFactor" : [0.025723999366164207, 0.05766532942652702, 0.11800000071525574, 1], "metallicFactor" : 0, "roughnessFactor" : 0}, "emissiveFactor" : [0, 0, 0], "alphaMode" : "OPAQUE", "doubleSided" : false}], "meshes" : [{"primitives" : [{"attributes" : {"POSITION" : 1, "NORMAL" : 2, "TEXCOORD_0" : 3}, "indices" : 0, "material" : 0, "mode" : 4}, {"attributes" : {"POSITION" : 5, "NORMAL" : 6, "TEXCOORD_0" : 7}, "indices" : 4, "material" : 1, "mode" : 4}, {"attributes" : {"POSITION" : 9, "NORMAL" : 10, "TEXCOORD_0" : 11}, "indices" : 8, "material" : 2, "mode" : 4}, {"attributes" : {"POSITION" : 13, "NORMAL" : 14, "TEXCOORD_0" : 15}, "indices" : 12, "material" : 3, "mode" : 4}, {"attributes" : {"POSITION" : 17, "NORMAL" : 18, "TEXCOORD_0" : 19}, "indices" : 16, "material" : 4, "mode" : 4}, {"attributes" : {"POSITION" : 21, "NORMAL" : 22, "TEXCOORD_0" : 23}, "indices" : 20, "material" : 5, "mode" : 4}, {"attributes" : {"POSITION" : 25, "NORMAL" : 26, "TEXCOORD_0" : 27}, "indices" : 24, "material" : 6, "mode" : 4}, {"attributes" : {"POSITION" : 29, "NORMAL" : 30, "TEXCOORD_0" : 31}, "indices" : 28, "material" : 7, "mode" : 4}, {"attributes" : {"POSITION" : 33, "NORMAL" : 34, "TEXCOORD_0" : 35}, "indices" : 32, "material" : 8, "mode" : 4}, {"attributes" : {"POSITION" : 37, "NORMAL" : 38, "TEXCOORD_0" : 39}, "indices" : 36, "material" : 9, "mode" : 4}, {"attributes" : {"POSITION" : 41, "NORMAL" : 42, "TEXCOORD_0" : 43}, "indices" : 40, "material" : 10, "mode" : 4}, {"attributes" : {"POSITION" : 45, "NORMAL" : 46, "TEXCOORD_0" : 47}, "indices" : 44, "material" : 11, "mode" : 4}], "name" : ""}], "nodes" : [{"mesh" : 0, "name" : "Devin"}], "scene" : 0, "scenes" : [{"nodes" : [0]}]}